<mxfile host="65bd71144e">
    <diagram id="hlbMp2S2ft_TFModSld7" name="第1頁">
        <mxGraphModel dx="878" dy="827" grid="1" gridSize="10" guides="1" tooltips="1" connect="1" arrows="1" fold="1" page="1" pageScale="1" pageWidth="827" pageHeight="1169" math="0" shadow="0">
            <root>
                <mxCell id="0"/>
                <mxCell id="1" parent="0"/>
                <mxCell id="219" value="" style="rounded=0;whiteSpace=wrap;html=1;" vertex="1" parent="1">
                    <mxGeometry x="160" y="190" width="570" height="180" as="geometry"/>
                </mxCell>
                <mxCell id="210" value="" style="edgeStyle=none;html=1;" edge="1" parent="1" source="208" target="209">
                    <mxGeometry relative="1" as="geometry"/>
                </mxCell>
                <mxCell id="208" value="Host issue&amp;nbsp;&lt;div&gt;FW Update&lt;/div&gt;" style="rounded=0;whiteSpace=wrap;html=1;" vertex="1" parent="1">
                    <mxGeometry x="190" y="200" width="120" height="60" as="geometry"/>
                </mxCell>
                <mxCell id="212" value="" style="edgeStyle=none;html=1;" edge="1" parent="1" source="209" target="211">
                    <mxGeometry relative="1" as="geometry"/>
                </mxCell>
                <mxCell id="209" value="FW has to check the new FW and save it into NAND Flash" style="whiteSpace=wrap;html=1;rounded=0;" vertex="1" parent="1">
                    <mxGeometry x="390" y="200" width="120" height="60" as="geometry"/>
                </mxCell>
                <mxCell id="214" value="" style="edgeStyle=none;html=1;" edge="1" parent="1" source="211" target="213">
                    <mxGeometry relative="1" as="geometry"/>
                </mxCell>
                <mxCell id="211" value="FW has to handle the internal system info for new FW" style="whiteSpace=wrap;html=1;rounded=0;" vertex="1" parent="1">
                    <mxGeometry x="590" y="200" width="120" height="60" as="geometry"/>
                </mxCell>
                <mxCell id="216" value="" style="edgeStyle=none;html=1;" edge="1" parent="1" source="213" target="215">
                    <mxGeometry relative="1" as="geometry"/>
                </mxCell>
                <mxCell id="213" value="Flushing tables into NAND Flash" style="whiteSpace=wrap;html=1;rounded=0;" vertex="1" parent="1">
                    <mxGeometry x="590" y="300" width="120" height="60" as="geometry"/>
                </mxCell>
                <mxCell id="218" value="" style="edgeStyle=none;html=1;" edge="1" parent="1" source="215" target="217">
                    <mxGeometry relative="1" as="geometry"/>
                </mxCell>
                <mxCell id="215" value="&lt;font style=&quot;color: rgb(255, 0, 0);&quot;&gt;ROM Code load new FW&lt;/font&gt;" style="whiteSpace=wrap;html=1;rounded=0;" vertex="1" parent="1">
                    <mxGeometry x="390" y="300" width="120" height="60" as="geometry"/>
                </mxCell>
                <mxCell id="217" value="Execute new FW" style="whiteSpace=wrap;html=1;rounded=0;" vertex="1" parent="1">
                    <mxGeometry x="190" y="300" width="120" height="60" as="geometry"/>
                </mxCell>
            </root>
        </mxGraphModel>
    </diagram>
</mxfile>